<svg width="70" height="70" viewBox="0 0 70 70" fill="none" xmlns="http://www.w3.org/2000/svg">
<g filter="url(#filter0_d_35_53)">
<rect width="58" height="58" rx="11" transform="matrix(1 8.74228e-08 8.74228e-08 -1 6 60)" fill="white"/>
<path d="M18.9393 32.0607C18.3536 31.4749 18.3536 30.5251 18.9393 29.9393L28.4853 20.3934C29.0711 19.8076 30.0208 19.8076 30.6066 20.3934C31.1924 20.9792 31.1924 21.9289 30.6066 22.5147L22.1213 31L30.6066 39.4853C31.1924 40.0711 31.1924 41.0208 30.6066 41.6066C30.0208 42.1924 29.0711 42.1924 28.4853 41.6066L18.9393 32.0607ZM20 29.5H50V32.5H20V29.5Z" fill="black"/>
<rect width="58" height="58" rx="11" transform="matrix(1 8.74228e-08 8.74228e-08 -1 6 60)" stroke="black" stroke-width="4" stroke-linejoin="round"/>
</g>
<defs>
<filter id="filter0_d_35_53" x="0" y="0" width="70" height="70" filterUnits="userSpaceOnUse" color-interpolation-filters="sRGB">
<feFlood flood-opacity="0" result="BackgroundImageFix"/>
<feColorMatrix in="SourceAlpha" type="matrix" values="0 0 0 0 0 0 0 0 0 0 0 0 0 0 0 0 0 0 127 0" result="hardAlpha"/>
<feOffset dy="4"/>
<feGaussianBlur stdDeviation="2"/>
<feComposite in2="hardAlpha" operator="out"/>
<feColorMatrix type="matrix" values="0 0 0 0 0 0 0 0 0 0 0 0 0 0 0 0 0 0 0.25 0"/>
<feBlend mode="normal" in2="BackgroundImageFix" result="effect1_dropShadow_35_53"/>
<feBlend mode="normal" in="SourceGraphic" in2="effect1_dropShadow_35_53" result="shape"/>
</filter>
</defs>
</svg>
