<svg width="70" height="70" viewBox="0 0 70 70" fill="none" xmlns="http://www.w3.org/2000/svg">
<g filter="url(#filter0_d_35_55)">
<rect x="64" y="60" width="58" height="58" rx="11" transform="rotate(180 64 60)" fill="white"/>
<path d="M51.0607 32.0607C51.6464 31.4749 51.6464 30.5251 51.0607 29.9393L41.5147 20.3934C40.9289 19.8076 39.9792 19.8076 39.3934 20.3934C38.8076 20.9792 38.8076 21.9289 39.3934 22.5147L47.8787 31L39.3934 39.4853C38.8076 40.0711 38.8076 41.0208 39.3934 41.6066C39.9792 42.1924 40.9289 42.1924 41.5147 41.6066L51.0607 32.0607ZM50 29.5H20V32.5H50V29.5Z" fill="black"/>
<rect x="64" y="60" width="58" height="58" rx="11" transform="rotate(180 64 60)" stroke="black" stroke-width="4" stroke-linejoin="round"/>
</g>
<defs>
<filter id="filter0_d_35_55" x="0" y="0" width="70" height="70" filterUnits="userSpaceOnUse" color-interpolation-filters="sRGB">
<feFlood flood-opacity="0" result="BackgroundImageFix"/>
<feColorMatrix in="SourceAlpha" type="matrix" values="0 0 0 0 0 0 0 0 0 0 0 0 0 0 0 0 0 0 127 0" result="hardAlpha"/>
<feOffset dy="4"/>
<feGaussianBlur stdDeviation="2"/>
<feComposite in2="hardAlpha" operator="out"/>
<feColorMatrix type="matrix" values="0 0 0 0 0 0 0 0 0 0 0 0 0 0 0 0 0 0 0.25 0"/>
<feBlend mode="normal" in2="BackgroundImageFix" result="effect1_dropShadow_35_55"/>
<feBlend mode="normal" in="SourceGraphic" in2="effect1_dropShadow_35_55" result="shape"/>
</filter>
</defs>
</svg>
